<svg xmlns="http://www.w3.org/2000/svg" viewBox="0 0 900 650"><defs><linearGradient id="a" x1="0" x2="1"><stop stop-color="#111b2b"/><stop offset="1" stop-color="#1f3b6d"/></linearGradient><linearGradient id="b" x1="0" x2="1" y1="0" y2="1"><stop stop-color="#35d7ff"/><stop offset="1" stop-color="#765dff"/></linearGradient><filter id="s" x="-20%" y="-20%" width="140%" height="140%"><feDropShadow dx="0" dy="22" stdDeviation="22" flood-opacity=".25"/></filter></defs><rect width="900" height="650" rx="36" fill="url(#a)"/><circle cx="740" cy="120" r="170" fill="#2bd4ff" opacity=".12"/><circle cx="160" cy="560" r="180" fill="#ffcf32" opacity=".10"/><g filter="url(#s)"><rect x="115" y="120" width="500" height="330" rx="24" fill="#eaf3ff"/><rect x="145" y="150" width="440" height="244" rx="14" fill="url(#b)"/><rect x="235" y="480" width="265" height="28" rx="14" fill="#d7e2f1"/><path d="M370 450l-25 56M440 450l25 56" stroke="#d7e2f1" stroke-width="22" stroke-linecap="round"/></g><g transform="translate(550 320)" filter="url(#s)"><rect x="0" y="0" width="235" height="145" rx="22" fill="#fff"/><rect x="25" y="30" width="80" height="20" rx="10" fill="#15c286"/><rect x="25" y="66" width="165" height="14" rx="7" fill="#cad6e8"/><rect x="25" y="94" width="140" height="14" rx="7" fill="#cad6e8"/><circle cx="190" cy="42" r="18" fill="#ffca29"/></g><g transform="translate(95 92)"><rect x="0" y="0" width="220" height="54" rx="27" fill="#fff" opacity=".12"/><circle cx="28" cy="27" r="12" fill="#15c286"/><path d="M55 21h132M55 34h92" stroke="#fff" stroke-width="8" stroke-linecap="round" opacity=".7"/></g><path d="M292 270l76 56 130-130" fill="none" stroke="#fff" stroke-width="24" stroke-linecap="round" stroke-linejoin="round" opacity=".95"/></svg>
